<svg xmlns="http://www.w3.org/2000/svg" width="60" height="60" viewBox="0 0 60 60"><defs><style>.a{fill:none;}.b{fill:#e9f2f1;}</style></defs><path class="a" d="M0,0H60V60H0Z"/><path class="b" d="M51.167,24.125H40.915L48.88,16.16l-3.466-3.491L33.958,24.125H29.042V19.208L40.5,7.752,37.007,4.286l-7.965,7.965V2H24.125V12.251L16.16,4.286,12.669,7.752,24.125,19.208v4.917H19.208L7.752,12.669,4.286,16.16l7.965,7.965H2v4.917H12.251L4.286,37.007,7.752,40.5,19.208,29.042h4.917v4.917L12.669,45.414,16.16,48.88l7.965-7.965V51.167h4.917V40.915l7.965,7.965L40.5,45.414,29.042,33.958V29.042h4.917L45.414,40.5l3.466-3.491-7.965-7.965H51.167Z" transform="translate(3.417 3.417)"/></svg>