<svg id="sun-icon" xmlns="http://www.w3.org/2000/svg" width="60" height="60" viewBox="0 0 60 60">
  <path id="Path_1" data-name="Path 1" d="M0,0H60V60H0Z" fill="none"/>
  <path id="Path_2" data-name="Path 2" d="M15.4,11.273,10.9,6.8,7.374,10.323,11.848,14.8ZM1,25.42H8.5v5H1ZM26,.55h5V7.924H26Zm20.1,6.236L49.611,10.3l-4.474,4.474L41.62,11.258Zm-4.5,37.78,4.474,4.5,3.524-3.524-4.5-4.474Zm6.9-19.146h7.5v5h-7.5Zm-20-12.5a15,15,0,1,0,15,15A15.009,15.009,0,0,0,28.495,12.923Zm0,25a10,10,0,1,1,10-10A10,10,0,0,1,28.495,37.918Zm-2.5,10h5v7.374H26Zm-18.622-2.4L10.9,49.04l4.474-4.5-3.524-3.524Z" transform="translate(1.505 0.828)" fill="#e9f2f1"/>
</svg>
